<svg xmlns="http://www.w3.org/2000/svg" xmlns:xlink="http://www.w3.org/1999/xlink" width="77" height="77" viewBox="0 0 77 77">
  <defs>
    <style>
      .cls-1 {
        fill: #393535;
      }

      .cls-2 {
        clip-path: url(#clip-path);
      }

      .cls-3 {
        fill: #989898;
      }
    </style>
    <clipPath id="clip-path">
      <rect id="Rectángulo_38" data-name="Rectángulo 38" class="cls-1" width="77" height="77" transform="translate(4366.5 2830.5)"/>
    </clipPath>
  </defs>
  <g id="Enmascarar_grupo_9" data-name="Enmascarar grupo 9" class="cls-2" transform="translate(-4366.5 -2830.5)">
    <path id="flecha-hacia-la-izquierda_1_" data-name="flecha-hacia-la-izquierda (1)" class="cls-3" d="M.59,63.623c-.034.05-.062.1-.093.153s-.058.092-.083.141-.052.107-.077.16-.048.1-.07.15-.039.106-.058.16-.04.108-.057.164-.028.109-.042.163-.03.112-.041.169-.02.128-.029.192c-.007.049-.016.1-.022.147a3.548,3.548,0,0,0,0,.693c.005.05.014.1.022.147s.017.128.029.192.027.113.041.169.026.109.042.163.038.109.057.164.037.107.058.16.046.1.07.15.049.108.077.16.055.094.083.141.059.1.093.153.074.1.112.153.059.083.092.122a3.439,3.439,0,0,0,.233.258L18.545,85.565A3.5,3.5,0,1,0,23.5,80.61L11.962,69.073H73.579a3.5,3.5,0,1,0,0-7.008H11.962L23.5,50.527a3.5,3.5,0,0,0-4.955-4.955L1.027,63.09a3.431,3.431,0,0,0-.233.258c-.033.04-.061.081-.092.122S.625,63.57.59,63.623Z" transform="translate(4365.694 2802.667)"/>
  </g>
</svg>
