<svg xmlns="http://www.w3.org/2000/svg" xmlns:xlink="http://www.w3.org/1999/xlink" width="509" height="509" viewBox="0 0 509 509">
  <defs>
    <style>
      .cls-1 {
        fill: #ffba92;
      }

      .cls-2 {
        clip-path: url(#clip-path);
      }
    </style>
    <clipPath id="clip-path">
      <rect id="Rectángulo_30" data-name="Rectángulo 30" class="cls-1" width="509" height="509"/>
    </clipPath>
  </defs>
  <g id="Enmascarar_grupo_6" data-name="Enmascarar grupo 6" class="cls-2">
    <g id="volumen-1" transform="translate(0 38.768)">
      <g id="Grupo_59" data-name="Grupo 59" transform="translate(99.848 0)">
        <g id="Grupo_58" data-name="Grupo 58">
          <path id="Trazado_23" data-name="Trazado 23" class="cls-1" d="M178.151,18.212l-139.8,96.534v232.98l139.8,96.534a16.668,16.668,0,0,0,26.619-13.327V31.539A16.671,16.671,0,0,0,178.151,18.212Z" transform="translate(-38.356 -14.892)"/>
        </g>
      </g>
      <g id="Grupo_61" data-name="Grupo 61" transform="translate(408.831 45.382)">
        <g id="Grupo_60" data-name="Grupo 60">
          <path id="Trazado_24" data-name="Trazado 24" class="cls-1" d="M185.458,37.2a16.64,16.64,0,0,0-23.532,23.532c84.312,84.344,84.312,221.636,0,305.981a16.64,16.64,0,0,0,23.532,23.532C282.771,292.9,282.771,134.546,185.458,37.2Z" transform="translate(-157.051 -32.326)"/>
        </g>
      </g>
      <g id="Grupo_63" data-name="Grupo 63" transform="translate(361.735 92.446)">
        <g id="Grupo_62" data-name="Grupo 62">
          <path id="Trazado_25" data-name="Trazado 25" class="cls-1" d="M167.366,55.28a16.64,16.64,0,0,0-23.532,23.532c58.375,58.407,58.375,153.447,0,211.853A16.64,16.64,0,0,0,167.366,314.2C238.71,242.821,238.71,126.656,167.366,55.28Z" transform="translate(-138.959 -50.405)"/>
        </g>
      </g>
      <g id="Grupo_65" data-name="Grupo 65" transform="translate(314.671 139.542)">
        <g id="Grupo_64" data-name="Grupo 64">
          <path id="Trazado_26" data-name="Trazado 26" class="cls-1" d="M149.319,73.372A16.64,16.64,0,0,0,125.787,96.9a83.307,83.307,0,0,1-.032,117.693,16.64,16.64,0,1,0,23.532,23.532A116.634,116.634,0,0,0,149.319,73.372Z" transform="translate(-120.879 -68.497)"/>
        </g>
      </g>
      <g id="Grupo_67" data-name="Grupo 67" transform="translate(0 99.854)">
        <g id="Grupo_66" data-name="Grupo 66">
          <path id="Trazado_27" data-name="Trazado 27" class="cls-1" d="M16.641,53.251A16.642,16.642,0,0,0,0,69.893v199.7a16.641,16.641,0,0,0,16.641,16.641H66.565V53.251Z" transform="translate(0 -53.251)"/>
        </g>
      </g>
    </g>
  </g>
</svg>
